<svg width="18" height="19" viewBox="0 0 18 19" fill="none" xmlns="http://www.w3.org/2000/svg">
<g clip-path="url(#clip0_23_57)">
<path d="M8.25 11H6.75C6.75 7.2725 9.7725 4.25 13.5 4.25V5.75C10.5975 5.75 8.25 8.0975 8.25 11ZM13.5 8.75V7.25C11.43 7.25 9.75 8.93 9.75 11H11.25C11.25 9.755 12.255 8.75 13.5 8.75ZM5.25 3.5C5.25 2.6675 4.5825 2 3.75 2C2.9175 2 2.25 2.6675 2.25 3.5C2.25 4.3325 2.9175 5 3.75 5C4.5825 5 5.25 4.3325 5.25 3.5ZM8.5875 3.875H7.0875C6.9075 4.94 5.9925 5.75 4.875 5.75H2.625C2.0025 5.75 1.5 6.2525 1.5 6.875V8.75H6V7.055C7.395 6.6125 8.4375 5.3825 8.5875 3.875ZM14.25 13.25C15.0825 13.25 15.75 12.5825 15.75 11.75C15.75 10.9175 15.0825 10.25 14.25 10.25C13.4175 10.25 12.75 10.9175 12.75 11.75C12.75 12.5825 13.4175 13.25 14.25 13.25ZM15.375 14H13.125C12.0075 14 11.0925 13.19 10.9125 12.125H9.4125C9.5625 13.6325 10.605 14.8625 12 15.305V17H16.5V15.125C16.5 14.5025 15.9975 14 15.375 14Z" fill="black"/>
</g>
<defs>
<clipPath id="clip0_23_57">
<rect width="18" height="18" fill="white" transform="translate(0 0.5)"/>
</clipPath>
</defs>
</svg>
