<svg width="18" height="19" viewBox="0 0 18 19" fill="none" xmlns="http://www.w3.org/2000/svg">
<g clip-path="url(#clip0_23_42)">
<path d="M9 2C5.2725 2 2.25 5.0225 2.25 8.75C2.25 11.8775 4.38 14.5025 7.2675 15.2675L9 17L10.7325 15.2675C13.62 14.5025 15.75 11.8775 15.75 8.75C15.75 5.0225 12.7275 2 9 2ZM9 3.5C10.245 3.5 11.25 4.505 11.25 5.75C11.25 6.995 10.245 8 9 8C7.755 8 6.75 6.995 6.75 5.75C6.75 4.505 7.755 3.5 9 3.5ZM9 14.225C7.125 14.225 5.4675 13.265 4.5 11.81C4.5225 10.3175 7.5 9.5 9 9.5C10.4925 9.5 13.4775 10.3175 13.5 11.81C12.5325 13.265 10.875 14.225 9 14.225Z" fill="black"/>
</g>
<defs>
<clipPath id="clip0_23_42">
<rect width="18" height="18" fill="white" transform="translate(0 0.5)"/>
</clipPath>
</defs>
</svg>
