<svg width="86" height="71" viewBox="0 0 86 71" fill="none" xmlns="http://www.w3.org/2000/svg">
<path d="M79.0389 13.012C76.3869 14.2014 73.5369 15.0052 70.5456 15.3667C73.5989 13.5159 75.9434 10.5854 77.0476 7.09362C74.1905 8.80711 71.0257 10.0516 67.6574 10.7224C64.9598 7.81613 61.1166 6 56.8635 6C48.6966 6 42.0754 12.6953 42.0754 20.9535C42.0754 22.1255 42.2065 23.2668 42.4585 24.3612C30.1685 23.7376 19.2723 17.7843 11.9789 8.73726C10.706 10.9458 9.97674 13.5146 9.97674 16.255C9.97674 21.443 12.5876 26.0201 16.5555 28.7016C14.1313 28.624 11.8513 27.9514 9.85731 26.8314C9.85626 26.8937 9.85626 26.9564 9.85626 27.0193C9.85626 34.2646 14.9536 40.3086 21.7184 41.6822C20.4774 42.024 19.1711 42.2066 17.8223 42.2066C16.8695 42.2066 15.943 42.113 15.0403 41.9384C16.9219 47.8795 22.3831 52.2028 28.8539 52.3235C23.793 56.3341 17.4168 58.7248 10.4887 58.7248C9.29522 58.7248 8.11805 58.6541 6.96118 58.516C13.5054 62.7588 21.2784 65.2343 29.6293 65.2343C56.829 65.2343 71.7027 42.4481 71.7027 22.6875C71.7027 22.0391 71.6885 21.3942 71.66 20.753C74.549 18.6446 77.0563 16.0108 79.0389 13.012Z" fill="#55ACEE"/>
</svg>
